<?xml version="1.0" standalone="no"?>
<!DOCTYPE svg PUBLIC "-//W3C//DTD SVG 20010904//EN"
 "http://www.w3.org/TR/2001/REC-SVG-20010904/DTD/svg10.dtd">
<svg version="1.0" xmlns="http://www.w3.org/2000/svg"
 width="261.000000pt" height="261.000000pt" viewBox="0 0 261.000000 261.000000"
 preserveAspectRatio="xMidYMid meet">
<metadata>
Created by potrace 1.14, written by Peter Selinger 2001-2017
</metadata>
<g transform="translate(0.000000,261.000000) scale(0.100000,-0.100000)"
fill="#000000" stroke="none">
<path d="M22 1310 l3 -715 400 1 c344 0 409 3 465 18 222 58 333 202 327 424
-5 146 -62 241 -181 302 l-66 33 44 27 c86 55 137 151 137 258 1 116 -26 187
-94 249 -63 58 -108 79 -232 110 -11 3 -197 6 -413 7 l-392 2 2 -716z m741
441 c59 -29 81 -67 81 -142 -1 -90 -53 -142 -157 -155 -37 -5 -231 -8 -327 -5
l-35 1 2 67 c1 38 2 112 2 166 l1 99 193 -4 c178 -3 196 -5 240 -27z m-47
-525 c129 -14 196 -86 188 -202 -5 -65 -30 -111 -78 -139 -57 -33 -85 -37
-303 -39 l-193 -2 -1 93 c0 51 -1 137 -1 191 l-1 97 34 5 c42 6 286 3 355 -4z"/>
<path d="M1225 2020 c-2 -3 10 -28 27 -55 17 -28 72 -117 123 -200 50 -82 155
-254 233 -382 l142 -231 0 -279 0 -278 149 0 c82 0 153 3 157 8 4 4 7 127 7
274 l-1 266 115 191 c217 359 370 611 391 646 12 19 22 37 22 40 0 3 -76 5
-168 5 -128 0 -173 -3 -185 -14 -10 -7 -17 -17 -17 -21 0 -7 -243 -422 -297
-509 -15 -23 -16 -22 -75 80 -137 236 -203 347 -237 404 l-37 60 -173 0 c-95
0 -174 -2 -176 -5z"/>
</g>
</svg>
