<?xml version="1.0" encoding="utf-8"?>
<!-- Generator: Adobe Illustrator 26.0.3, SVG Export Plug-In . SVG Version: 6.00 Build 0)  -->
<svg version="1.1" id="Слой_1" xmlns="http://www.w3.org/2000/svg" xmlns:xlink="http://www.w3.org/1999/xlink" x="0px" y="0px"
	 viewBox="0 0 18 18" style="enable-background:new 0 0 18 18;" xml:space="preserve">
<style type="text/css">
	.st0{fill:#FFFFFF;}
</style>
<path class="st0" d="M15.8,17.3L0.7,2.2c-0.4-0.4-0.4-1.1,0-1.5l0,0c0.4-0.4,1.1-0.4,1.5,0l15.1,15.1c0.4,0.4,0.4,1.1,0,1.5l0,0
	C16.9,17.7,16.2,17.7,15.8,17.3z"/>
<path class="st0" d="M0.7,17.3L0.7,17.3c-0.4-0.4-0.4-1.1,0-1.5L15.8,0.7c0.4-0.4,1.1-0.4,1.5,0l0,0c0.4,0.4,0.4,1.1,0,1.5L2.2,17.3
	C1.8,17.7,1.1,17.7,0.7,17.3z"/>
</svg>
