<svg id="Слой_1" data-name="Слой 1" xmlns="http://www.w3.org/2000/svg" viewBox="0 0 414.69 64.28"><defs><style>.cls-1{fill:#1d1d1b;}</style></defs><path class="cls-1" d="M29.16,1.3C40,1.3,48.79,5.88,48.79,16.78A13.57,13.57,0,0,1,40.4,29.5C46.81,31.32,51.65,36,51.65,44.56c0,12-9.26,18.34-20.85,18.34H0V1.3Zm-16,24.91H25.44c4.93,0,10.2-.95,10.2-7.18s-5-7.26-10.2-7.26H13.15Zm0,26H26.73c5.8,0,11.42-1.13,11.42-8.39,0-7.44-6-8.39-12.11-8.39H13.15Z"/><path class="cls-1" d="M107.2,12.37H74.41V25.78h30.1V36.42H74.41V51.56H107.8V62.9H61V1.3h46.2Z"/><path class="cls-1" d="M171.13,62.9H157L152.1,49.14H129.17l-5,13.76H110.31L133.76,1.21h13.93ZM140.68,16.35l-8.22,22.93h16.35Z"/><path class="cls-1" d="M209.12,19.64c-.52-6-4.5-9.17-11.68-9.17-6.23,0-9.95,2.59-9.95,7,0,5.36,6.57,5.79,18.86,9.25,11,3.12,18,7.36,18,17.65,0,14.54-12.8,19.9-25.34,19.9-16.7,0-26.57-8-26.74-22h13.41c.26,8.3,5.71,11.59,13.93,11.59,7.1,0,11.42-3.11,11.42-8.22,0-4.84-4.15-5.71-16.87-9.34-10-2.86-19.64-5.37-19.64-17.91C174.51,7.27,183.85,0,198.22,0c13,0,23.44,5.88,23.7,19.64Z"/><path class="cls-1" d="M278.25,12.8H259.73V62.9H246.15V12.8H227.63V1.3h50.62Z"/><path class="cls-1" d="M298.92,62.9H285.34V1.3h13.58Z"/><path class="cls-1" d="M354.3,12.63H324.36V26.91h26V37.63h-26V62.9h-13.5V1.3H354.3Z"/><path class="cls-1" d="M391.76,39.19V62.9H378.44v-24l-23-37.63h15.4L385.18,26,399.72,1.3h15Z"/></svg>